<svg width="32" height="32" viewBox="0 0 32 32" fill="none" xmlns="http://www.w3.org/2000/svg">
<path d="M8 15.4756V24.0001H16.5244L14.7467 22.2223H9.77778V17.2534L8 15.4756Z" fill="#5B17D0"/>
<path d="M30.9951 28.7022L28.444 26.1155V28.4444H3.55514V24.7555H5.33291V23.3333H3.55514V17.4222H5.33291V16H3.55514V10.3111H5.33291V8.88888H3.55514V3.91999L17.724 18.0089V15.5022L3.29736 1.14666C3.17303 1.0213 3.01418 0.935807 2.84108 0.901078C2.66797 0.86635 2.48844 0.88396 2.32538 0.951664C2.16231 1.01937 2.02311 1.1341 1.92551 1.28123C1.82791 1.42835 1.77633 1.60122 1.77736 1.77777V29.3333C1.77736 29.5691 1.87101 29.7952 2.03771 29.9619C2.20441 30.1286 2.4305 30.2222 2.66625 30.2222H30.364C30.5406 30.2232 30.7134 30.1717 30.8606 30.0741C31.0077 29.9765 31.1224 29.8373 31.1901 29.6742C31.2578 29.5111 31.2754 29.3316 31.2407 29.1585C31.206 28.9854 31.1205 28.8265 30.9951 28.7022Z" fill="#5B17D0"/>
<path d="M21.3334 26.6666H24.889C25.3605 26.6666 25.8127 26.4793 26.1461 26.1459C26.4795 25.8125 26.6668 25.3603 26.6668 24.8888V7.73329L24.6223 3.97329C24.4642 3.69935 24.2359 3.47256 23.9609 3.31631C23.6859 3.16005 23.3742 3.08 23.0579 3.0844C22.7345 3.08697 22.4179 3.17772 22.1422 3.34688C21.8665 3.51605 21.6422 3.75721 21.4934 4.0444L19.5557 7.75107V24.8888C19.5557 25.3603 19.743 25.8125 20.0764 26.1459C20.4098 26.4793 20.8619 26.6666 21.3334 26.6666ZM21.3334 8.17773L23.0579 4.82662L24.889 8.18662V21.3333H21.3334V8.17773ZM21.3334 22.7822H24.889V24.9511H21.3334V22.7822Z" fill="#5B17D0"/>
</svg>
