<svg width="124" height="61" viewBox="0 0 124 61" fill="none" xmlns="http://www.w3.org/2000/svg">
<g clip-path="url(#clip0)">
<path d="M1.29391 55.6471H0.0224609V38.5459H12.4205V55.6471H11.1489V39.7194H1.29391V55.6471Z" fill="#5B17D0"/>
<path d="M27.9734 50.1545C27.9734 51.7858 27.4514 53.1503 26.4083 54.2488C25.3649 55.3473 24.0688 55.8967 22.5202 55.8967C21.7212 55.8967 20.9755 55.722 20.2827 55.3724C19.5895 55.0229 19.0068 54.5237 18.5343 53.8745V60.6399H17.3115V44.6624H18.2896L18.4852 46.5098C18.9579 45.8444 19.5448 45.3282 20.246 44.962C20.9467 44.5959 21.7048 44.4126 22.5202 44.4126C24.0688 44.4126 25.3649 44.9663 26.4083 46.0729C27.4514 47.1799 27.9734 48.5405 27.9734 50.1545ZM22.5202 45.561C21.3464 45.561 20.356 46.0021 19.5491 46.8841C18.742 47.7665 18.3385 48.8565 18.3385 50.1545C18.3385 51.4529 18.742 52.5432 19.5491 53.4252C20.356 54.3075 21.3464 54.7484 22.5202 54.7484C23.71 54.7484 24.7046 54.3075 25.5035 53.4252C26.3021 52.5432 26.7018 51.4529 26.7018 50.1545C26.7018 48.8565 26.3021 47.7665 25.5035 46.8841C24.7046 46.0021 23.71 45.561 22.5202 45.561Z" fill="#5B17D0"/>
<path d="M41.5937 50.1545C41.5937 51.8024 41.0803 53.1716 40.0532 54.2616C39.026 55.3516 37.73 55.8968 36.165 55.8968C34.5999 55.8968 33.3038 55.3516 32.2769 54.2616C31.2497 53.1716 30.7363 51.8024 30.7363 50.1545C30.7363 48.5069 31.2497 47.1381 32.2769 46.0478C33.3038 44.9581 34.5999 44.4126 36.165 44.4126C37.73 44.4126 39.026 44.9581 40.0532 46.0478C41.0803 47.1381 41.5937 48.5069 41.5937 50.1545ZM32.0078 50.1545C32.0078 51.4695 32.403 52.5638 33.1938 53.4376C33.9844 54.3114 34.9748 54.7484 36.165 54.7484C37.3548 54.7484 38.3452 54.3114 39.1362 53.4376C39.9267 52.5638 40.3222 51.4695 40.3222 50.1545C40.3222 48.8402 39.9308 47.7456 39.1483 46.8717C38.3659 45.9979 37.3713 45.561 36.165 45.561C34.9584 45.561 33.9642 45.9979 33.1817 46.8717C32.3992 47.7456 32.0078 48.8402 32.0078 50.1545Z" fill="#5B17D0"/>
<path d="M54.8969 50.9538C54.8969 49.8051 54.4525 48.8902 53.5641 48.2074C52.6754 47.5253 51.5303 47.1839 50.1284 47.1839H47.5851V46.0104H50.1284C51.3021 46.0104 52.2681 45.7111 53.0261 45.1118C53.7842 44.5125 54.1633 43.7225 54.1633 42.74C54.1633 41.7583 53.8166 40.976 53.1239 40.3934C52.4308 39.811 51.5303 39.5195 50.4217 39.5195C49.4925 39.5195 48.6121 39.7237 47.7808 40.1312C46.9492 40.5391 46.2156 41.1172 45.5799 41.8662L44.773 41.0426C45.4902 40.1606 46.3338 39.482 47.3039 39.008C48.2737 38.5335 49.313 38.2961 50.4217 38.2961C51.9051 38.2961 53.1197 38.7002 54.0654 39.5071C55.0107 40.3145 55.4838 41.3921 55.4838 42.74C55.4838 43.6556 55.2228 44.4421 54.7011 45.0994C54.1792 45.7571 53.4376 46.2439 52.4758 46.5598C53.6657 46.8927 54.5869 47.4379 55.2391 48.195C55.891 48.9524 56.2174 49.8719 56.2174 50.9538C56.2174 52.4517 55.6752 53.65 54.5911 54.5486C53.5068 55.4472 52.1172 55.8968 50.4217 55.8968C49.2315 55.8968 48.127 55.6595 47.1083 55.1854C46.0893 54.711 45.2211 54.0328 44.5039 53.1504L45.4087 52.3017C46.0282 53.0676 46.7697 53.6542 47.634 54.0618C48.4979 54.4697 49.4272 54.6735 50.4217 54.6735C51.7422 54.6735 52.8182 54.3363 53.6497 53.6624C54.4811 52.9884 54.8969 52.0855 54.8969 50.9538Z" fill="#5B17D0"/>
<path d="M68.9817 55.6472H67.7585V50.5043H61.2294V55.6472H60.0068V44.6626H61.2294V49.381H67.7585V44.6626H68.9817V55.6472Z" fill="#5B17D0"/>
<path d="M83.2147 55.647H82.2364L82.0406 53.7995C81.5676 54.4653 80.9809 54.9815 80.2802 55.3473C79.5788 55.7131 78.8209 55.8968 78.0059 55.8968C76.4568 55.8968 75.1608 55.3434 74.1177 54.2365C73.0743 53.1298 72.5527 51.7692 72.5527 50.1545C72.5527 48.5236 73.0743 47.1587 74.1177 46.0605C75.1608 44.962 76.4568 44.4126 78.0059 44.4126C78.8209 44.4126 79.5788 44.5959 80.2802 44.962C80.9809 45.3282 81.5676 45.8444 82.0406 46.5098L82.2364 44.6624H83.2147V55.647ZM73.8242 50.1545C73.8242 51.4529 74.2234 52.5432 75.0225 53.4252C75.8209 54.3076 76.8155 54.7484 78.0059 54.7484C79.1796 54.7484 80.17 54.3076 80.9771 53.4252C81.7838 52.5432 82.1875 51.4529 82.1875 50.1545C82.1875 48.8565 81.7838 47.7665 80.9771 46.8841C80.17 46.0021 79.1796 45.561 78.0059 45.561C76.8155 45.561 75.8209 46.0021 75.0225 46.8841C74.2234 47.7665 73.8242 48.8565 73.8242 50.1545Z" fill="#5B17D0"/>
<path d="M96.5898 55.6472H95.3669V50.5043H88.8378V55.6472H87.6152V44.6626H88.8378V49.381H95.3669V44.6626H96.5898V55.6472Z" fill="#5B17D0"/>
<path d="M110.064 55.6472H108.89V46.4099L102.165 55.6472H100.991V44.6626H102.165V53.9246L108.89 44.6626H110.064V55.6472Z" fill="#5B17D0"/>
<path d="M122.437 53.375L123.244 54.199C122.69 54.7816 122.083 55.2101 121.422 55.4846C120.762 55.7595 120.016 55.8968 119.185 55.8968C117.604 55.8968 116.287 55.3516 115.236 54.2616C114.184 53.1716 113.658 51.8024 113.658 50.1545C113.658 48.5236 114.163 47.1587 115.174 46.0605C116.185 44.962 117.44 44.4126 118.94 44.4126C120.391 44.4126 121.594 44.9581 122.547 46.0478C123.501 47.1381 123.978 48.5069 123.978 50.1545C123.978 50.238 123.978 50.3087 123.978 50.3668C123.978 50.4255 123.969 50.4878 123.953 50.5539H114.905C114.987 51.7692 115.427 52.7721 116.226 53.5625C117.024 54.3532 118.011 54.7484 119.185 54.7484C119.821 54.7484 120.412 54.632 120.958 54.3988C121.504 54.1657 121.997 53.8246 122.437 53.375ZM118.94 45.561C117.897 45.561 117.004 45.9229 116.263 46.6471C115.52 47.3709 115.077 48.2989 114.93 49.4307H122.706C122.576 48.2823 122.16 47.3504 121.459 46.6347C120.758 45.919 119.918 45.561 118.94 45.561Z" fill="#5B17D0"/>
<g opacity="0.3">
<path opacity="0.3" d="M42.4852 28.1321L27.2773 19.9531L27.9431 18.7759L42.4852 28.1321Z" fill="#5B17D0"/>
</g>
<g opacity="0.4">
<path opacity="0.4" d="M50.0697 20.3295L40.7822 5.60596L42.2236 4.75635L50.0697 20.3295Z" fill="#5B17D0"/>
</g>
<g opacity="0.55">
<path opacity="0.55" d="M60.4811 17.4317L59.4824 -0.010498H61.4797L60.4811 17.4317Z" fill="#5B17D0"/>
</g>
<g opacity="0.6">
<path opacity="0.6" d="M70.9902 20.1559L78.3058 4.50122L80.6121 5.86059L70.9902 20.1559Z" fill="#5B17D0"/>
</g>
<g opacity="0.8">
<path opacity="0.8" d="M78.5605 28.0828L92.5198 17.8928L94.1842 20.8359L78.5605 28.0828Z" fill="#5B17D0"/>
</g>
<path d="M81.4102 38.7393L98.4377 36.7002V40.7783L81.4102 38.7393Z" fill="#5B17D0"/>
<g opacity="0.2">
<path opacity="0.2" d="M39.7821 38.7393L22.5254 39.0791V38.3994L39.7821 38.7393Z" fill="#5B17D0"/>
</g>
</g>
</svg>
